<svg xmlns="http://www.w3.org/2000/svg" width="1280" height="800" viewBox="0 0 1280 800" fill="none">
  <defs>
    <linearGradient id="bg2" x1="0" y1="0" x2="1280" y2="800" gradientUnits="userSpaceOnUse">
      <stop stop-color="#1D4ED8"/>
      <stop offset="1" stop-color="#2563EB"/>
    </linearGradient>
  </defs>
  <rect width="1280" height="800" fill="url(#bg2)"/>
  <rect x="64" y="62" width="1152" height="676" rx="24" fill="rgba(10,20,44,0.58)" stroke="rgba(255,255,255,0.2)"/>
  <rect x="112" y="114" width="420" height="28" rx="12" fill="#fff" fill-opacity="0.9"/>
  <rect x="112" y="160" width="640" height="18" rx="8" fill="#fff" fill-opacity="0.42"/>
  <rect x="112" y="194" width="520" height="18" rx="8" fill="#fff" fill-opacity="0.34"/>
  <path d="M120 600C220 520 300 560 380 470C460 380 520 390 600 320C680 250 760 270 840 190C920 110 1020 130 1160 80" stroke="#22D3EE" stroke-width="10" stroke-linecap="round"/>
  <path d="M120 640C200 560 300 620 390 550C470 500 550 530 640 470C730 410 800 430 900 370C980 320 1060 330 1160 280" stroke="#A78BFA" stroke-width="8" stroke-linecap="round"/>
  <circle cx="390" cy="550" r="12" fill="#22D3EE"/>
  <circle cx="640" cy="470" r="12" fill="#A78BFA"/>
  <circle cx="900" cy="370" r="12" fill="#22D3EE"/>
  <rect x="112" y="278" width="320" height="260" rx="18" fill="rgba(255,255,255,0.08)" stroke="rgba(255,255,255,0.16)"/>
  <rect x="148" y="320" width="180" height="20" rx="9" fill="#fff" fill-opacity="0.85"/>
  <rect x="148" y="356" width="230" height="16" rx="8" fill="#fff" fill-opacity="0.38"/>
  <rect x="148" y="386" width="200" height="16" rx="8" fill="#fff" fill-opacity="0.3"/>
  <rect x="452" y="278" width="708" height="220" rx="18" fill="rgba(255,255,255,0.08)" stroke="rgba(255,255,255,0.16)"/>
  <rect x="492" y="320" width="260" height="20" rx="9" fill="#fff" fill-opacity="0.85"/>
  <rect x="492" y="356" width="620" height="16" rx="8" fill="#fff" fill-opacity="0.38"/>
  <rect x="492" y="386" width="540" height="16" rx="8" fill="#fff" fill-opacity="0.3"/>
</svg>
